<?xml version="1.0" encoding="UTF-8" standalone="no"?>
<svg
   xmlns:dc="http://purl.org/dc/elements/1.1/"
   xmlns:cc="http://creativecommons.org/ns#"
   xmlns:rdf="http://www.w3.org/1999/02/22-rdf-syntax-ns#"
   xmlns:svg="http://www.w3.org/2000/svg"
   xmlns="http://www.w3.org/2000/svg"
   xmlns:xlink="http://www.w3.org/1999/xlink"
   id="Artwork"
   viewBox="0 0 457.28606 106.19662"
   version="1.1"
   width="457.28607"
   height="106.19662">
  <metadata
     id="metadata51">
    <rdf:RDF>
      <cc:Work
         rdf:about="">
        <dc:format>image/svg+xml</dc:format>
        <dc:type
           rdf:resource="http://purl.org/dc/dcmitype/StillImage" />
        <dc:title>FullColorPrimary Horizontal</dc:title>
      </cc:Work>
    </rdf:RDF>
  </metadata>
  <defs
     id="defs16">
    <rect
       x="162.00868"
       y="51.752132"
       width="497.53812"
       height="144.9857"
       id="rect1004" />
    <rect
       x="171.14339"
       y="54.550102"
       width="66.795898"
       height="130.07536"
       id="rect878" />
    <style
       id="style2">.cls-1{fill:none;}.cls-2{clip-path:url(#clip-path);}.cls-3{fill:url(#linear-gradient);}.cls-4{clip-path:url(#clip-path-2);}.cls-5{fill:url(#linear-gradient-2);}.cls-6{fill:#425066;}</style>
    <clipPath
       id="clip-path">
      <polygon
         class="cls-1"
         points="111.38,63.26 111.38,166.5 128.99,156.27 128.99,127.22 142.29,134.92 142.22,115.06 128.99,107.5 128.99,95.96 155.52,111.29 155.46,88.44 "
         id="polygon4" />
    </clipPath>
    <linearGradient
       id="linear-gradient"
       x1="59.259998"
       y1="114.75"
       x2="167.52"
       y2="114.75"
       gradientUnits="userSpaceOnUse">
      <stop
         offset="0"
         stop-color="#ff6f00"
         id="stop7" />
      <stop
         offset="1"
         stop-color="#ffa800"
         id="stop9" />
    </linearGradient>
    <clipPath
       id="clip-path-2">
      <polygon
         class="cls-1"
         points="107.42,63.26 107.42,166.5 89.81,156.27 89.81,95.96 63.27,111.29 63.33,88.44 "
         id="polygon12" />
    </clipPath>
    <linearGradient
       id="linear-gradient-2"
       x1="58.529999"
       y1="114.75"
       x2="166.78999"
       y2="114.75"
       xlink:href="#linear-gradient" />
    <rect
       x="171.14339"
       y="54.550102"
       width="66.795898"
       height="130.07536"
       id="rect878-1" />
    <rect
       x="171.14339"
       y="54.550102"
       width="66.795898"
       height="130.07536"
       id="rect892" />
    <linearGradient
       xlink:href="#linear-gradient"
       id="linearGradient930"
       x1="39.641838"
       y1="112.91014"
       x2="196.9274"
       y2="114.29092"
       gradientUnits="userSpaceOnUse"
       gradientTransform="matrix(1,0,0,1.0011873,0,0.19031962)" />
    <linearGradient
       xlink:href="#linear-gradient"
       id="linearGradient942"
       x1="38.369148"
       y1="112.16406"
       x2="195.65471"
       y2="113.54647"
       gradientUnits="userSpaceOnUse"
       gradientTransform="translate(1.2726892,1.0704586)" />
    <linearGradient
       xlink:href="#linear-gradient"
       id="linearGradient1739"
       x1="39.641838"
       y1="113.23452"
       x2="196.9274"
       y2="114.61694"
       gradientUnits="userSpaceOnUse" />
  </defs>
  <title
     id="title18">FullColorPrimary Horizontal</title>
  <g
     class="cls-2"
     clip-path="url(#clip-path)"
     id="g22"
     transform="translate(-59.259998,-62.880001)"
     style="fill-opacity:1;fill:url(#linearGradient1739)">
    <rect
       class="cls-3"
       x="59.259998"
       y="62.880001"
       width="108.26"
       height="103.75"
       id="rect20"
       style="fill:url(#linearGradient1739);fill-opacity:1.0" />
  </g>
  <g
     id="layer1"
     style="display:inline"
     transform="translate(-59.259998,-62.880001)">
    <text
       xml:space="preserve"
       style="font-style:normal;font-weight:normal;font-size:29.3333px;line-height:1.25;font-family:sans-serif;letter-spacing:-3.47px;fill:url(#linearGradient942);fill-opacity:1;stroke:none"
       x="81.298965"
       y="123.35873"
       id="text934"><tspan
         id="tspan932"
         x="81.298965"
         y="123.35873"
         style="font-style:normal;font-variant:normal;font-weight:900;font-stretch:normal;font-size:26.6667px;font-family:Roboto;-inkscape-font-specification:'Roboto Heavy';letter-spacing:-0.43px;word-spacing:0px;fill:url(#linearGradient942);fill-opacity:1">++</tspan></text>
    <path
       id="text876"
       style="font-style:normal;font-variant:normal;font-weight:500;font-stretch:normal;font-size:40px;line-height:1.25;font-family:Roboto;-inkscape-font-specification:'Roboto Medium';white-space:pre;shape-inside:url(#rect878-1);fill:url(#linearGradient930);fill-opacity:1;stroke:none;stroke-width:3.52735"
       d="m 104.43164,63.319873 c -12.622986,0 -22.653756,4.320903 -30.089843,12.960682 -7.436087,8.593822 -11.152344,20.104827 -11.152344,34.535095 v 8.13464 c 0,14.47624 3.648884,26.01168 10.947266,34.6055 7.298381,8.59382 17.121174,12.89028 29.468751,12.89028 1.30547,0 2.57073,-0.0424 3.81055,-0.11536 v -14.13396 c -1.20764,0.11213 -2.46105,0.18773 -3.81055,0.18773 -8.124614,0 -13.978257,-3.0569 -17.558595,-9.16907 -3.534436,-6.15815 -5.300781,-14.24664 -5.300781,-24.26512 v -8.61568 c 0.0459,-10.432072 2.020224,-18.520569 5.921875,-24.265103 3.947552,-5.790489 9.868567,-8.686082 17.763671,-8.686082 1.04241,0 2.02854,0.05017 2.98438,0.127104 V 63.400046 c -0.97714,-0.04711 -1.96649,-0.08017 -2.98438,-0.08017 z" />
  </g>
  <g
     id="layer3"
     style="display:none"
     transform="translate(-59.259998,-62.880001)">
    <path
       class="cls-6"
       d="m 235.43,95.25 h -19.72 v 54.38999 H 204.8 V 95.25 h -19.55 v -8.86 h 50.18 z"
       id="path28-9"
       style="fill:#425066" />
    <path
       class="cls-6"
       d="m 248.52,150.50999 q -10,0 -16.27,-6.31999 -6.27,-6.32 -6.25,-16.82999 V 126.05 a 28.25,28.25 0 0 1 2.72,-12.58 20.7,20.7 0 0 1 7.62,-8.62 20.16,20.16 0 0 1 11,-3.08 q 9.6,0 14.84,6.12 5.24,6.12 5.24,17.34 v 4.25 h -30.76 a 14.05,14.05 0 0 0 3.89,9.21001 11.66,11.66 0 0 0 8.58,3.39 14.3,14.3 0 0 0 11.87,-5.86 l 5.69,5.43 a 19.08,19.08 0 0 1 -7.54,6.54 23.59,23.59 0 0 1 -10.63,2.31998 z M 247.26,110.24 a 8.88,8.88 0 0 0 -7,3 15.76,15.76 0 0 0 -3.41,8.47 H 257 V 121 c -0.23,-3.53 -1.17,-6.21 -2.83,-8 a 8.8,8.8 0 0 0 -6.91,-2.76 z"
       id="path30-2"
       style="fill:#425066" />
    <path
       class="cls-6"
       d="m 285.36,102.63 0.31,5.44 a 16.88,16.88 0 0 1 13.68,-6.3 q 14.68,0 14.95,16.81 v 31.05999 H 303.74 V 119.19 c 0,-3 -0.64,-5.19 -1.93,-6.63 -1.29,-1.44 -3.4,-2.15 -6.32,-2.15 a 10.19,10.19 0 0 0 -9.52,5.78 v 33.44999 H 275.41 V 102.64 Z"
       id="path32-9"
       style="fill:#425066" />
    <path
       class="cls-6"
       d="m 348.55,136.87 a 4.78,4.78 0 0 0 -2.32,-4.30001 24.76,24.76 0 0 0 -7.71,-2.61 39.6,39.6 0 0 1 -9,-2.87 Q 321.62,123.28 321.62,116.02 a 12.52,12.52 0 0 1 5.12,-10.17 q 5.13,-4.08 13,-4.08 8.43,0 13.62,4.17 a 13.22,13.22 0 0 1 5.19,10.81 H 348 a 6.51,6.51 0 0 0 -2.26,-5.06 8.67,8.67 0 0 0 -6,-2 9.36,9.36 0 0 0 -5.67,1.61 5.08,5.08 0 0 0 -2.2,4.3 4.27,4.27 0 0 0 2,3.78 c 1.36,0.9 4.11,1.8 8.25,2.72 a 39,39 0 0 1 9.75,3.26 13.77,13.77 0 0 1 5.26,4.53999 11.52,11.52 0 0 1 1.72,6.43 12.24,12.24 0 0 1 -5.26,10.27 c -3.5,2.62001 -8.1,3.93001 -13.77,3.93001 a 24.33,24.33 0 0 1 -10.3,-2.08001 16.92,16.92 0 0 1 -7,-5.74 13.56,13.56 0 0 1 -2.52,-7.86 h 10.26 a 7.39,7.39 0 0 0 2.82,5.75 11,11 0 0 0 6.91,2 q 4.17,0 6.34,-1.59 a 4.91,4.91 0 0 0 2.22,-4.13999 z"
       id="path34-0"
       style="fill:#425066" />
    <path
       class="cls-6"
       d="m 364.37,125.7 a 27.63,27.63 0 0 1 2.74,-12.44 20,20 0 0 1 7.69,-8.52 21.68,21.68 0 0 1 11.38,-3 q 9.51,0 15.45,6.12 5.94,6.12 6.4,16.25 l 0.05,2.48001 a 28,28 0 0 1 -2.67,12.41 19.73,19.73 0 0 1 -7.65,8.47 21.83,21.83 0 0 1 -11.49,3 q -10,0 -15.93,-6.62001 -5.93,-6.62 -6,-17.66 z m 10.56,0.92001 q 0,7.23999 3,11.35999 a 10.46,10.46 0 0 0 16.66,-0.07 q 3,-4.17 3,-12.21 0,-7.12 -3.06,-11.29 A 10.33,10.33 0 0 0 378,114.34 q -3.08,4.11 -3.07,12.28001 z"
       id="path36-3"
       style="fill:#425066" />
    <path
       class="cls-6"
       d="m 439.84,112.28 a 26.27,26.27 0 0 0 -4.3,-0.35 q -7.26,0 -9.78,5.56 v 32.15 H 415.2 v -47 h 10.08 l 0.27,5.26 q 3.81,-6.12 10.6,-6.12 a 10,10 0 0 1 3.73,0.6 z"
       id="path38-0"
       style="fill:#425066" />
    <path
       class="cls-6"
       d="m 484,122.84 h -25.48 v 26.8 h -11 V 86.39 h 40.19 v 8.86 h -29.2 v 18.81 H 484 Z"
       id="path40-3"
       style="fill:#425066" />
    <path
       class="cls-6"
       d="M 504.84,149.63999 H 494.28 V 86.25 h 10.56 z"
       id="path42-3"
       style="fill:#425066" />
    <path
       class="cls-6"
       d="m 512.57,125.7 a 27.63,27.63 0 0 1 2.74,-12.44 20,20 0 0 1 7.69,-8.52 21.7,21.7 0 0 1 11.38,-3 q 9.52,0 15.45,6.12 5.93,6.12 6.41,16.25 v 2.48001 a 28,28 0 0 1 -2.63,12.41 19.67,19.67 0 0 1 -7.65,8.47 21.83,21.83 0 0 1 -11.49,3 q -9.94,0 -15.92,-6.62001 -5.98,-6.62 -6,-17.66 z m 10.56,0.92001 q 0,7.23999 3,11.35999 a 9.74,9.74 0 0 0 8.34,4.1 9.64,9.64 0 0 0 8.32,-4.17 q 3,-4.17 3,-12.21 0,-7.12 -3.07,-11.29 a 10.33,10.33 0 0 0 -16.53,-0.07 q -3.06,4.11 -3.06,12.28001 z"
       id="path44-7"
       style="fill:#425066" />
    <path
       class="cls-6"
       d="M 603.92,135.09001 611.4,102.63 h 10.29 l -12.81,46.99999 h -8.69 L 590.11,117.35 580.2,149.62999 h -8.69 L 558.65,102.63 H 569 l 7.6,32.11 9.65,-32.11 h 7.95 z"
       id="path46-9"
       style="fill:#425066" />
  </g>
  <g
     id="layer2"
     transform="translate(-59.259998,-62.880001)">
    <text
       xml:space="preserve"
       id="text1002"
       style="font-style:normal;font-weight:normal;font-size:85.3333px;line-height:1.25;font-family:sans-serif;letter-spacing:0px;white-space:pre;shape-inside:url(#rect1004);fill:#425066;fill-opacity:1;stroke:none;"
       transform="translate(22.298596,18.176737)"><tspan
         x="162.00781"
         y="130.21767"><tspan
           style="font-style:normal;font-variant:normal;font-weight:500;font-stretch:normal;font-size:85.3333px;font-family:Roboto;-inkscape-font-specification:'Roboto Medium';fill:#425066;fill-opacity:1">CppFlow</tspan></tspan></text>
  </g>
</svg>
